<svg width="662" height="398" viewBox="0 0 662 398" fill="none" xmlns="http://www.w3.org/2000/svg">
<path d="M45.7647 373.457L84.8078 317.384L45.7448 379.556L45.722 385.935C42.9378 385.912 40.1816 385.821 37.4536 385.664C37.4412 384.215 40.7597 304.514 40.6186 303.072C40.8112 303.017 40.9193 295.534 40.9957 295.206L0.207031 233.932L41.0395 289.407L41.1613 291.047L43.5836 229.124L8.5214 165.712L43.861 218.244C43.8741 217.401 45.5336 90.2591 45.5499 89.4746C45.56 89.8913 46.3216 190.654 46.3272 191.079L79.8601 150.521L46.2951 199.794L46.1236 255.215L77.2418 201.623C38.4066 279.779 47.0011 252.429 46.0092 294.179L91.2102 219.556L45.9705 304.93L45.7647 373.457Z" fill="#D0CDE1"/>
<path d="M643.062 381.069L659.332 357.702L643.054 383.611L643.044 386.269C641.884 386.259 640.736 386.222 639.599 386.156C639.594 385.552 640.976 352.339 640.918 351.738C640.998 351.715 641.043 348.597 641.075 348.46L624.077 322.925L641.093 346.043L641.144 346.727L642.153 320.922L627.542 294.497L642.269 316.388C642.274 316.037 642.966 263.053 642.973 262.727C642.977 262.9 643.294 304.891 643.297 305.068L657.271 288.166L643.283 308.7L643.212 331.795L656.179 309.461C639.996 342.031 643.577 330.634 643.164 348.032L662 316.935L643.148 352.512L643.062 381.069Z" fill="#D0CDE1"/>
<path d="M329.918 398C512.127 398 659.836 392.216 659.836 385.08C659.836 377.944 512.127 372.16 329.918 372.16C147.709 372.16 0 377.944 0 385.08C0 392.216 147.709 398 329.918 398Z" fill="#D0CDE1"/>
<path d="M489.953 152.599H113.256V377.083H489.953V152.599Z" fill="#3F3D56"/>
<path d="M206.482 152.599C206.097 176.221 196.439 198.746 179.592 215.316C162.744 231.886 140.056 241.173 116.42 241.176C115.361 241.176 114.308 241.157 113.256 241.12V152.599H206.482Z" fill="#AE7CD4"/>
<path d="M320.03 377.082H284.203C285.551 373.418 287.992 370.255 291.195 368.021C294.399 365.787 298.211 364.589 302.117 364.589C306.023 364.589 309.835 365.787 313.039 368.021C316.242 370.255 318.682 373.418 320.03 377.082Z" fill="#AE7CD4"/>
<path d="M489.953 260.968V336.581C480.241 336.107 471.084 331.916 464.378 324.878C457.673 317.84 453.933 308.493 453.933 298.774C453.933 289.055 457.673 279.709 464.378 272.671C471.084 265.633 480.241 261.442 489.953 260.968Z" fill="#AE7CD4"/>
<path d="M420.75 234.171H183.111C176.982 234.171 172.013 239.137 172.013 245.264V245.264C172.013 251.391 176.982 256.358 183.111 256.358H420.75C426.88 256.358 431.849 251.391 431.849 245.264C431.849 239.137 426.88 234.171 420.75 234.171Z" fill="white"/>
<path d="M420.75 277.892H183.111C176.982 277.892 172.013 282.859 172.013 288.986V288.986C172.013 295.113 176.982 300.079 183.111 300.079H420.75C426.88 300.079 431.849 295.113 431.849 288.986C431.849 282.859 426.88 277.892 420.75 277.892Z" fill="white"/>
<path d="M420.75 321.614H351.848C345.718 321.614 340.749 326.581 340.749 332.708C340.749 338.834 345.718 343.801 351.848 343.801H420.75C426.879 343.801 431.848 338.834 431.848 332.708C431.848 326.581 426.879 321.614 420.75 321.614Z" fill="white"/>
<path d="M549.69 68.9809C549.69 68.9809 560.048 73.0073 560.624 86.2371C561.199 99.467 557.747 136.28 557.747 136.28C557.747 136.28 570.407 154.687 560.624 159.864C550.841 165.041 549.69 139.156 549.69 139.156L538.181 84.5115C538.181 84.5115 545.086 68.4057 549.69 68.9809Z" fill="#A0616A"/>
<path d="M443.804 111.546C443.804 111.546 419.059 127.652 417.908 114.998C416.757 102.343 425.389 52.8749 425.389 52.8749C425.389 52.8749 426.54 31.5922 438.625 36.7691C450.71 41.946 435.172 59.7775 435.172 59.7775L436.899 100.042L448.408 99.4669L443.804 111.546Z" fill="#A0616A"/>
<path d="M483.511 126.502C483.511 126.502 407.549 98.3164 411.578 131.103C415.606 163.89 435.172 205.305 435.172 205.305L442.077 216.234H456.464L447.257 156.988C447.257 156.988 480.058 175.394 489.841 172.518C489.841 172.518 502.501 257.074 507.105 263.401C511.709 269.729 519.765 346.232 519.765 346.232L527.246 355.435H541.633V226.013C541.633 226.013 566.378 145.484 547.388 141.457C528.397 137.431 483.511 126.502 483.511 126.502Z" fill="#2F2E41"/>
<path d="M440.351 208.757C440.351 208.757 436.898 202.429 431.143 208.757C425.389 215.084 411.577 222.562 411.577 222.562C411.577 222.562 381.653 229.464 405.823 235.216C429.992 240.968 432.87 235.216 432.87 235.216C432.87 235.216 436.898 236.367 440.351 237.517C443.804 238.668 466.247 234.641 466.247 231.19C466.247 227.739 458.628 207.113 455.532 210.236C452.436 213.358 440.351 208.757 440.351 208.757Z" fill="#2F2E41"/>
<path d="M528.349 349.741C528.349 349.741 519.864 342.757 517.868 344.752C515.871 346.748 505.39 360.218 505.39 360.218C505.39 360.218 477.439 381.67 502.894 385.163C528.349 388.655 526.852 379.176 526.852 379.176H534.837C535.836 379.176 549.312 373.189 548.813 370.695C548.314 368.2 542.324 347.86 540.328 349.299C538.331 350.739 528.349 349.741 528.349 349.741Z" fill="#2F2E41"/>
<path d="M451.286 47.1228C462.092 47.1228 470.851 38.3667 470.851 27.5657C470.851 16.7646 462.092 8.00854 451.286 8.00854C440.48 8.00854 431.72 16.7646 431.72 27.5657C431.72 38.3667 440.48 47.1228 451.286 47.1228Z" fill="#A0616A"/>
<path d="M465.097 25.2649C465.097 25.2649 480.059 37.9195 490.417 37.9195C500.775 37.9195 475.455 61.5031 475.455 61.5031L453.012 41.3708L465.097 25.2649Z" fill="#A0616A"/>
<path d="M470.851 61.5031L470.403 56.9714C470.403 56.9714 481.785 36.7691 485.238 35.0434C488.691 33.3178 490.993 33.3178 490.993 33.3178C490.993 33.3178 502.502 21.2384 515.162 27.5657C527.823 33.893 557.747 74.1577 557.747 74.1577C557.747 74.1577 536.455 75.8833 539.332 92.5644C539.332 92.5644 560.624 147.209 554.869 147.784C549.115 148.36 531.851 144.333 514.011 152.386C496.172 160.439 488.115 155.262 488.115 155.262L478.908 125.351C478.908 125.351 461.644 115.573 462.219 106.945L437.187 118.161L439.488 96.8784L454.738 79.3345C454.738 79.3345 451.861 77.0337 470.851 61.5031Z" fill="#575A89"/>
<path d="M433.287 29.6801C432.51 30.5439 431.535 31.2074 430.446 31.6142C429.332 31.9284 427.927 31.5431 427.483 30.4743L428.311 29.398L425.831 27.8575L426.911 26.59L424.914 24.4217L426.49 23.1713L423.488 21.0253C427.379 14.6793 431.587 8.25383 437.73 4.04703C443.872 -0.159766 452.456 -1.65459 458.748 2.32447C462.015 4.39035 464.326 7.66923 466.176 11.062C469.898 17.8852 473.179 24.5362 473.663 32.2926C471.325 30.017 467.912 28.7346 465.574 26.459C464.539 25.361 463.366 24.4013 462.085 23.6039C459.64 22.2256 456.714 22.1036 453.976 21.4819C451.675 20.9591 450.181 19.922 448.44 18.4395C446.368 16.6758 446.283 17.3578 444.192 19.3434C440.559 22.7914 436.924 26.237 433.287 29.6801Z" fill="#2F2E41"/>
</svg>
